<svg xmlns="http://www.w3.org/2000/svg" xmlns:xlink="http://www.w3.org/1999/xlink" viewBox="0 0 78 99">
  <defs>
    <linearGradient id="a" x1="304.9" x2="328.1" y1="157.2" y2="157.2" gradientUnits="userSpaceOnUse">
      <stop offset="0" stop-color="#95c11f"/>
      <stop offset=".7" stop-color="#3aaa35"/>
      <stop offset="1" stop-color="#008d36"/>
    </linearGradient>
    <linearGradient id="d" x1="0" x2="10" y1="173.4" y2="173.4" gradientTransform="translate(25 19) scale(.91743)"
                    xlink:href="#a"/>
    <linearGradient id="e" x1="0" x2="27.6" y1="200.9" y2="200.9" gradientTransform="translate(25 19) scale(.91743)"
                    xlink:href="#a"/>
    <linearGradient id="f" x1="55.8" x2="84.1" y1="207.3" y2="207.3" gradientTransform="translate(25 19) scale(.91743)"
                    xlink:href="#a"/>
    <linearGradient id="g" x1="24" x2="65.7" y1="217.7" y2="217.7" gradientTransform="translate(25 19) scale(.91743)"
                    xlink:href="#a"/>
    <linearGradient id="l" x1="45.5" x2="79.1" y1="194.6" y2="194.6" gradientTransform="translate(25 19) scale(.91743)"
                    xlink:href="#a"/>
    <linearGradient id="k" x1="14.4" x2="42.5" y1="192.9" y2="192.9" gradientTransform="translate(25 19) scale(.91743)"
                    xlink:href="#a"/>
    <linearGradient id="j" x1="16.9" x2="73.9" y1="173" y2="173" gradientTransform="translate(25 19) scale(.91743)"
                    xlink:href="#a"/>
    <linearGradient id="i" x1="26.6" x2="65.7" y1="155.7" y2="155.7" gradientTransform="translate(25 19) scale(.91743)"
                    xlink:href="#a"/>
    <linearGradient id="h" x1="61" x2="84.2" y1="145.1" y2="145.1" gradientTransform="translate(25 19) scale(.91743)"
                    xlink:href="#a"/>
    <linearGradient id="b" x1="30.6" x2="73.1" y1="131.7" y2="131.7" gradientTransform="translate(25 19) scale(.91743)"
                    xlink:href="#a"/>
    <linearGradient id="c" x1="0" x2="32.7" y1="145.1" y2="145.1" gradientTransform="translate(25 19) scale(.91743)"
                    xlink:href="#a"/>
  </defs>
  <path fill="url(#b)" stroke="#010101" stroke-linecap="round" stroke-linejoin="round" stroke-miterlimit="7.9"
        stroke-width=".9" d="M53 150l12-8h4l12 8 11-5-24-13h-3l-10 6z" transform="translate(-24 -130)"/>
  <path fill="url(#c)" stroke="#010101" stroke-linecap="round" stroke-linejoin="round" stroke-miterlimit="7.9"
        stroke-width=".9" d="M34 168v-6l1-2 18-10 2-12-8 4-20 12c-2 1-2 2-2 3v6z" transform="translate(-24 -130)"/>
  <path fill="url(#d)" stroke="#010101" stroke-linecap="round" stroke-linejoin="round" stroke-miterlimit="7.9"
        stroke-width=".9" d="M34 190v-22l-9-5v31z" transform="translate(-24 -130)"/>
  <path fill="url(#e)" stroke="#010101" stroke-linecap="round" stroke-linejoin="round" stroke-miterlimit="7.9"
        stroke-width=".9" d="M50 209a2755 2755 0 01-16-11v-8l-9 4v9l1 3 21 12z" transform="translate(-24 -130)"/>
  <path fill="url(#f)" stroke="#010101" stroke-linecap="round" stroke-linejoin="round" stroke-miterlimit="7.9"
        stroke-width=".9" d="M85 219a2188 2188 0 0117-12l-2-5c0-2-2-2-3-1l-21 12z" transform="translate(-24 -130)"/>
  <path fill="url(#g)" stroke="#010101" stroke-linecap="round" stroke-linejoin="round" stroke-miterlimit="7.9"
        stroke-width=".9" d="M47 218l19 11h2l17-10-9-6-8 5h-2l-16-9z" transform="translate(-24 -130)"/>
  <path fill="url(#h)" stroke="#010101" stroke-linecap="round" stroke-linejoin="round" stroke-miterlimit="7.9"
        stroke-width=".9" d="M81 150l16 9c2 1 3 1 3-1l2-5v-2l-10-6z" transform="translate(-24 -130)"/>
  <path fill="url(#i)" stroke="#010101" stroke-miterlimit="7.9" stroke-width=".9" d="M55 152l14-3 14 6 2 17-17 3-19-5z"
        transform="translate(-24 -130)"/>
  <path fill="url(#j)" stroke="#010101" stroke-miterlimit="7.9" stroke-width=".9"
        d="M40 174l9-4 19 5 17-3 8 7-25 6-13-5z" transform="translate(-24 -130)"/>
  <path fill="url(#k)" stroke="#010101" stroke-miterlimit="7.9" stroke-width=".9" d="M38 182l7-3 5 2v13l14 11v9l-17-18z"
        transform="translate(-24 -130)"/>
  <path fill="url(#l)" stroke="#010101" stroke-miterlimit="7.9" stroke-width=".9"
        d="M97 184l-12 14-18 15 1-7 14-10 6-12 4-1z" transform="translate(-24 -130)"/>
  <path fill="#fff" stroke="#010101" stroke-miterlimit="7.9" stroke-width=".9"
        d="M39 54l-3 1c-2 0-4-1-5-3v-2m27 2l-3 3c-1 1-3 2-5 1l-3-1" class="cls-15"/>
</svg>
